<?xml version="1.0" encoding="utf-8"?>
<!-- Generator: Adobe Illustrator 24.0.3, SVG Export Plug-In . SVG Version: 6.00 Build 0)  -->
<svg version="1.1" id="Layer_1" xmlns="http://www.w3.org/2000/svg" xmlns:xlink="http://www.w3.org/1999/xlink" x="0px" y="0px"
	 viewBox="0 0 638 279" style="enable-background:new 0 0 638 279;" xml:space="preserve">
<style type="text/css">
	.st0{fill:#F78219;}
	.st1{fill:#FFFFFF;}
</style>
<title>NGPF_Color_horizontal</title>
<path class="st0" d="M241.6,154c-1.3-0.2-3.8-0.4-3.8-1.2c0-1.3,2.9-1.4,3.5-1.4c1.8,0,3.6,0.9,4,1.6l0.8,1.3l6.5-3l-0.8-1.6
	c-1.3-2.6-3.7-4.5-6.6-5.1v-3.1l0,0v-22.9l-7.5,1.8v21.1l0,0v3.1c-4.7,1-7.6,4.1-7.6,8.1c0,7.2,6.7,8,10.7,8.4
	c3.1,0.4,4.2,1.1,4.2,1.6c0,1.8-3.3,1.9-3.9,1.9c-2.1,0-4.4-1.1-4.9-2.4l-0.7-1.6l-7,3l0.7,1.6c1.5,3.4,4.7,5.9,8.4,6.4v3.3h7.6
	v-3.5c4.6-0.9,7.7-4.3,7.7-8.7C253,155.4,245.9,154.5,241.6,154z"/>
<path class="st1" d="M107.3,132.1v29.8c0,2.9,2,3.4,4.1,4.1c11.6,4.2,31.7,12.5,54.7,12.5s41.7-8.3,53.6-12.5
	c2.1-0.7,4.1-1.2,4.1-4.1v-29.6L166.1,149L107.3,132.1z"/>
<polygon class="st1" points="166.1,91.5 166,91.6 74.6,115.9 107.3,125.3 107.3,125.3 166.1,142.2 223.7,125.4 256.6,115.9 "/>
<path class="st1" d="M319.5,102.3c-7.7,0-14.1,2.2-19.1,6.6v-4.8H283v73.3h17.4v-38.7c0-12.6,6-19.5,16.8-19.5
	c9,0,13.9,5.2,13.9,14.5v43.7h17.4V133C348.5,114.4,337.1,102.3,319.5,102.3z"/>
<path class="st1" d="M414,104.1v6.7c-6.2-5.6-14.3-8.7-22.6-8.5c-20.9,0-37.3,16.7-37.3,38s16.4,38.1,37.3,38.1
	c8.4,0.2,16.5-2.9,22.6-8.6v1.9c0,11.2-7.4,17.9-19.8,17.9c-13,0-17.3-5.2-19.5-9.8l-1.3-2.7l-15.3,8.6l1.3,2.4
	c6,11.6,18.3,18,34.6,18c9.8,0,18.9-3,25.6-8.6c7.6-6.3,11.7-15.2,11.7-25.9v-67.6H414z M414,140.3c0.3,11.7-9.1,21.5-20.8,21.7
	c-11.7,0.3-21.5-9.1-21.7-20.8c0-0.3,0-0.6,0-0.9c0-12,9.1-21.1,21.2-21.1S414,128.3,414,140.3z"/>
<path class="st0" d="M482.6,102.3c-8.4-0.2-16.5,2.9-22.7,8.5v-6.8h-17.4v100.3h17.4v-33.8c6.2,5.6,14.4,8.7,22.7,8.5
	c20.4,0,37-17.2,37-38.4S503,102.3,482.6,102.3z M502.2,140.7c0,12.2-9.1,21.4-21.1,21.4s-21.2-9.2-21.2-21.4s9.1-21.4,21.2-21.4
	S502.2,128.5,502.2,140.7L502.2,140.7z"/>
<path class="st0" d="M561,92.3l3,0.2v-17l-2.6-0.2c-10.4-0.7-18.5,1.6-24.2,6.9c-5.3,5-8.2,12.5-8.4,21.8h-10.8v17h10.8v56.3h17.4
	v-56.3H564v-17h-17.8c0.1-4.3,1.2-7.4,3.2-9.3C551.7,92.7,555.6,91.9,561,92.3z"/>
</svg>
